<mxfile host="65bd71144e">
    <diagram id="BnDto06y1hEJ7BhTKHjg" name="ページ1">
        <mxGraphModel dx="2272" dy="2044" grid="1" gridSize="10" guides="1" tooltips="1" connect="1" arrows="1" fold="1" page="1" pageScale="1" pageWidth="827" pageHeight="1169" math="0" shadow="0">
            <root>
                <mxCell id="0"/>
                <mxCell id="1" parent="0"/>
                <mxCell id="2" value="&amp;lt;model/Repository&amp;gt;&lt;br&gt;&lt;font style=&quot;font-size: 15px;&quot;&gt;OrderRepository&lt;/font&gt;" style="swimlane;whiteSpace=wrap;html=1;startSize=40;" vertex="1" parent="1">
                    <mxGeometry x="710" y="-245" width="440" height="150" as="geometry"/>
                </mxCell>
                <mxCell id="45" value="+ insert(order:Order):Order" style="text;html=1;align=center;verticalAlign=middle;resizable=0;points=[];autosize=1;strokeColor=none;fillColor=none;fontSize=17;" vertex="1" parent="2">
                    <mxGeometry x="105" y="55" width="230" height="30" as="geometry"/>
                </mxCell>
                <mxCell id="46" value="+ findByUserIdAndStatus(userId:Integer, status:Integer)" style="text;html=1;align=center;verticalAlign=middle;resizable=0;points=[];autosize=1;strokeColor=none;fillColor=none;fontSize=17;" vertex="1" parent="2">
                    <mxGeometry y="90" width="440" height="30" as="geometry"/>
                </mxCell>
                <mxCell id="58" style="edgeStyle=none;html=1;exitX=1;exitY=0.5;exitDx=0;exitDy=0;entryX=0;entryY=0.75;entryDx=0;entryDy=0;dashed=1;fontSize=17;startArrow=none;startFill=0;startSize=15;" edge="1" parent="1" source="3" target="48">
                    <mxGeometry relative="1" as="geometry"/>
                </mxCell>
                <mxCell id="59" style="edgeStyle=none;html=1;exitX=1;exitY=0.5;exitDx=0;exitDy=0;dashed=1;fontSize=17;startArrow=none;startFill=0;startSize=15;" edge="1" parent="1" source="3">
                    <mxGeometry relative="1" as="geometry">
                        <mxPoint x="710" y="230" as="targetPoint"/>
                    </mxGeometry>
                </mxCell>
                <mxCell id="57" style="edgeStyle=none;html=1;exitX=1;exitY=0.5;exitDx=0;exitDy=0;entryX=0;entryY=0.5;entryDx=0;entryDy=0;dashed=1;fontSize=17;startArrow=none;startFill=0;startSize=15;" edge="1" parent="1" source="4" target="48">
                    <mxGeometry relative="1" as="geometry"/>
                </mxCell>
                <mxCell id="4" value="&amp;lt;model/Service&amp;gt;&lt;br&gt;&lt;font style=&quot;font-size: 15px;&quot;&gt;DeleteItemService&lt;/font&gt;" style="swimlane;whiteSpace=wrap;html=1;startSize=40;" vertex="1" parent="1">
                    <mxGeometry x="115" y="-35" width="415" height="120" as="geometry"/>
                </mxCell>
                <mxCell id="25" value="+ deleteItem(orderItemId:Integer):void" style="text;html=1;align=center;verticalAlign=middle;resizable=0;points=[];autosize=1;strokeColor=none;fillColor=none;fontSize=17;" vertex="1" parent="4">
                    <mxGeometry x="10" y="60" width="310" height="30" as="geometry"/>
                </mxCell>
                <mxCell id="12" style="edgeStyle=none;html=1;exitX=0.5;exitY=1;exitDx=0;exitDy=0;entryX=0.5;entryY=0;entryDx=0;entryDy=0;fontSize=15;startArrow=diamondThin;startFill=1;startSize=15;" edge="1" parent="1" source="6" target="10">
                    <mxGeometry relative="1" as="geometry"/>
                </mxCell>
                <mxCell id="13" style="edgeStyle=none;html=1;exitX=0.5;exitY=1;exitDx=0;exitDy=0;entryX=0.5;entryY=0;entryDx=0;entryDy=0;fontSize=15;startArrow=diamondThin;startFill=1;startSize=15;" edge="1" parent="1" source="10" target="11">
                    <mxGeometry relative="1" as="geometry"/>
                </mxCell>
                <mxCell id="10" value="&lt;font style=&quot;&quot;&gt;&lt;span style=&quot;font-size: 12px;&quot;&gt;&amp;lt;model/domain&amp;gt;&lt;/span&gt;&lt;br&gt;&lt;font style=&quot;font-size: 15px;&quot;&gt;OrderItem&lt;/font&gt;&lt;br&gt;&lt;/font&gt;" style="swimlane;whiteSpace=wrap;html=1;fontSize=15;startSize=40;" vertex="1" parent="1">
                    <mxGeometry x="220" y="605" width="200" height="100" as="geometry"/>
                </mxCell>
                <mxCell id="11" value="&lt;font style=&quot;&quot;&gt;&lt;span style=&quot;font-size: 12px;&quot;&gt;&amp;lt;model/domain&amp;gt;&lt;/span&gt;&lt;br&gt;&lt;font style=&quot;font-size: 15px;&quot;&gt;OrderTopping&lt;/font&gt;&lt;br&gt;&lt;/font&gt;" style="swimlane;whiteSpace=wrap;html=1;fontSize=15;startSize=40;" vertex="1" parent="1">
                    <mxGeometry x="220" y="775" width="200" height="100" as="geometry"/>
                </mxCell>
                <mxCell id="23" value="&lt;span style=&quot;font-size: 12px;&quot;&gt;&amp;lt;view&amp;gt;&lt;/span&gt;&lt;br&gt;&lt;font style=&quot;font-size: 15px;&quot;&gt;cart_list.html&lt;/font&gt;" style="swimlane;whiteSpace=wrap;html=1;fontSize=15;startSize=40;" vertex="1" parent="1">
                    <mxGeometry x="-397.5" y="-235" width="200" height="100" as="geometry"/>
                </mxCell>
                <mxCell id="5" value="&amp;lt;model/Service&amp;gt;&lt;br&gt;&lt;font style=&quot;font-size: 15px;&quot;&gt;ShowShoppingCartService&lt;/font&gt;" style="swimlane;whiteSpace=wrap;html=1;startSize=40;" vertex="1" parent="1">
                    <mxGeometry x="115" y="-245" width="410" height="120" as="geometry"/>
                </mxCell>
                <mxCell id="44" value="+ showShoppingCart(userId:Integer, status:Integer):String" style="text;html=1;align=center;verticalAlign=middle;resizable=0;points=[];autosize=1;strokeColor=none;fillColor=none;fontSize=15;" vertex="1" parent="5">
                    <mxGeometry x="5" y="60" width="410" height="30" as="geometry"/>
                </mxCell>
                <mxCell id="34" value="&lt;font style=&quot;font-size: 12px;&quot;&gt;&amp;lt;controller/Form&amp;gt;&lt;/font&gt;&lt;br&gt;&lt;font style=&quot;font-size: 15px;&quot;&gt;AddItemForm&lt;/font&gt;" style="swimlane;whiteSpace=wrap;html=1;fontSize=15;startSize=40;" vertex="1" parent="1">
                    <mxGeometry x="-157.5" y="-480" width="250" height="165" as="geometry"/>
                </mxCell>
                <mxCell id="36" value="- itemId:String&lt;br style=&quot;font-size: 16px;&quot;&gt;- size:String&lt;br style=&quot;font-size: 16px;&quot;&gt;- toppingIdList:List&amp;lt;Integer&amp;gt;&amp;nbsp;&lt;br style=&quot;font-size: 16px;&quot;&gt;- quantity:String" style="text;html=1;align=center;verticalAlign=middle;resizable=0;points=[];autosize=1;strokeColor=none;fillColor=none;fontSize=16;" vertex="1" parent="34">
                    <mxGeometry x="10" y="60" width="230" height="90" as="geometry"/>
                </mxCell>
                <mxCell id="14" value="&amp;lt;Controller&amp;gt;&lt;br&gt;&lt;font style=&quot;font-size: 15px;&quot;&gt;ShoppingCartController&lt;/font&gt;" style="swimlane;whiteSpace=wrap;html=1;startSize=40;" vertex="1" parent="1">
                    <mxGeometry x="-500" y="-65" width="405" height="180" as="geometry"/>
                </mxCell>
                <mxCell id="29" value="+ showShoppingCart(userId:Integer, status:Integer):String" style="text;html=1;align=center;verticalAlign=middle;resizable=0;points=[];autosize=1;strokeColor=none;fillColor=none;fontSize=15;" vertex="1" parent="14">
                    <mxGeometry x="-5" y="60" width="410" height="30" as="geometry"/>
                </mxCell>
                <mxCell id="30" value="+ deleteItem(orderItemId:Integer):String" style="text;html=1;align=center;verticalAlign=middle;resizable=0;points=[];autosize=1;strokeColor=none;fillColor=none;fontSize=15;" vertex="1" parent="14">
                    <mxGeometry x="35" y="120" width="290" height="30" as="geometry"/>
                </mxCell>
                <mxCell id="38" value="&lt;span style=&quot;font-size: 15px;&quot;&gt;+ addItem(addItemForm:AddItemForm):String&lt;/span&gt;" style="text;html=1;align=center;verticalAlign=middle;resizable=0;points=[];autosize=1;strokeColor=none;fillColor=none;fontSize=12;" vertex="1" parent="14">
                    <mxGeometry x="27.5" y="90" width="330" height="30" as="geometry"/>
                </mxCell>
                <mxCell id="43" value="&lt;span style=&quot;color: rgba(0, 0, 0, 0); font-family: monospace; font-size: 0px; text-align: start;&quot;&gt;%3CmxGraphModel%3E%3Croot%3E%3CmxCell%20id%3D%220%22%2F%3E%3CmxCell%20id%3D%221%22%20parent%3D%220%22%2F%3E%3CmxCell%20id%3D%222%22%20value%3D%22%2B%20showShoppingCart(userId%3AInteger%2C%20status%3AInteger)%3AString%22%20style%3D%22text%3Bhtml%3D1%3Balign%3Dcenter%3BverticalAlign%3Dmiddle%3Bresizable%3D0%3Bpoints%3D%5B%5D%3Bautosize%3D1%3BstrokeColor%3Dnone%3BfillColor%3Dnone%3BfontSize%3D15%3B%22%20vertex%3D%221%22%20parent%3D%221%22%3E%3CmxGeometry%20x%3D%22-402.5%22%20y%3D%22-200%22%20width%3D%22410%22%20height%3D%2230%22%20as%3D%22geometry%22%2F%3E%3C%2FmxCell%3E%3C%2Froot%3E%3C%2FmxGraphModel%3E&lt;/span&gt;" style="text;html=1;align=center;verticalAlign=middle;resizable=0;points=[];autosize=1;strokeColor=none;fillColor=none;fontSize=16;" vertex="1" parent="1">
                    <mxGeometry x="270" y="-185" width="20" height="30" as="geometry"/>
                </mxCell>
                <mxCell id="6" value="&lt;span style=&quot;font-size: 12px;&quot;&gt;&amp;lt;model/domain&amp;gt;&lt;/span&gt;&lt;br&gt;Order" style="swimlane;whiteSpace=wrap;html=1;fontSize=15;startSize=40;" vertex="1" parent="1">
                    <mxGeometry x="220" y="420" width="200" height="100" as="geometry"/>
                </mxCell>
                <mxCell id="24" style="edgeStyle=none;html=1;exitX=0.5;exitY=0;exitDx=0;exitDy=0;fontSize=15;startArrow=none;startFill=0;startSize=15;entryX=0.5;entryY=1;entryDx=0;entryDy=0;" edge="1" parent="1" source="14" target="23">
                    <mxGeometry relative="1" as="geometry">
                        <mxPoint x="-229.76923076923094" y="-330" as="targetPoint"/>
                    </mxGeometry>
                </mxCell>
                <mxCell id="93" value="" style="swimlane;startSize=0;fontSize=17;" vertex="1" parent="1">
                    <mxGeometry x="690" y="-260" width="490" height="600" as="geometry"/>
                </mxCell>
                <mxCell id="95" style="edgeStyle=none;html=1;exitX=0;exitY=1;exitDx=0;exitDy=0;entryX=1.016;entryY=0.156;entryDx=0;entryDy=0;entryPerimeter=0;dashed=1;fontSize=17;startArrow=none;startFill=0;startSize=15;" edge="1" parent="1" source="93" target="6">
                    <mxGeometry relative="1" as="geometry"/>
                </mxCell>
                <mxCell id="97" style="edgeStyle=none;html=1;exitX=1;exitY=1;exitDx=0;exitDy=0;entryX=0;entryY=0.5;entryDx=0;entryDy=0;dashed=1;fontSize=17;startArrow=none;startFill=0;startSize=15;" edge="1" parent="1" source="14" target="3">
                    <mxGeometry relative="1" as="geometry"/>
                </mxCell>
                <mxCell id="101" style="edgeStyle=none;html=1;exitX=0.5;exitY=1;exitDx=0;exitDy=0;entryX=0.5;entryY=0;entryDx=0;entryDy=0;dashed=1;fontSize=17;startArrow=none;startFill=0;startSize=15;" edge="1" parent="1" source="91" target="6">
                    <mxGeometry relative="1" as="geometry"/>
                </mxCell>
                <mxCell id="91" value="" style="swimlane;startSize=0;fontSize=17;" vertex="1" parent="1">
                    <mxGeometry x="92.5" y="-260" width="457.5" height="590" as="geometry"/>
                </mxCell>
                <mxCell id="3" value="&amp;lt;model/Service&amp;gt;&lt;br&gt;&lt;font style=&quot;font-size: 15px;&quot;&gt;AddItemService&lt;/font&gt;" style="swimlane;whiteSpace=wrap;html=1;startSize=40;" vertex="1" parent="91">
                    <mxGeometry x="22.5" y="410" width="420" height="120" as="geometry"/>
                </mxCell>
                <mxCell id="31" value="+ addItem(addItemForm:AddItemForm):void" style="text;html=1;align=center;verticalAlign=middle;resizable=0;points=[];autosize=1;strokeColor=none;fillColor=none;fontSize=15;" vertex="1" parent="3">
                    <mxGeometry x="10" y="60" width="320" height="30" as="geometry"/>
                </mxCell>
                <mxCell id="48" value="&amp;lt;model/Repository&amp;gt;&lt;br&gt;&lt;font style=&quot;font-size: 15px;&quot;&gt;OrderItemRepository&lt;/font&gt;" style="swimlane;whiteSpace=wrap;html=1;startSize=40;" vertex="1" parent="1">
                    <mxGeometry x="710" y="-50" width="440" height="150" as="geometry"/>
                </mxCell>
                <mxCell id="49" value="+ insert(orderItem:OrderItem):Order" style="text;html=1;align=center;verticalAlign=middle;resizable=0;points=[];autosize=1;strokeColor=none;fillColor=none;fontSize=17;" vertex="1" parent="48">
                    <mxGeometry x="75" y="55" width="290" height="30" as="geometry"/>
                </mxCell>
                <mxCell id="54" value="+ deleteById(id:Integer):void" style="text;html=1;align=center;verticalAlign=middle;resizable=0;points=[];autosize=1;strokeColor=none;fillColor=none;fontSize=17;" vertex="1" parent="48">
                    <mxGeometry x="100" y="95" width="240" height="30" as="geometry"/>
                </mxCell>
                <mxCell id="98" style="edgeStyle=none;html=1;exitX=1;exitY=0.5;exitDx=0;exitDy=0;entryX=0;entryY=0.5;entryDx=0;entryDy=0;dashed=1;fontSize=17;startArrow=none;startFill=0;startSize=15;" edge="1" parent="1" source="14" target="4">
                    <mxGeometry relative="1" as="geometry"/>
                </mxCell>
                <mxCell id="99" style="edgeStyle=none;html=1;exitX=1;exitY=0;exitDx=0;exitDy=0;entryX=0;entryY=1;entryDx=0;entryDy=0;dashed=1;fontSize=17;startArrow=none;startFill=0;startSize=15;" edge="1" parent="1" source="14" target="5">
                    <mxGeometry relative="1" as="geometry"/>
                </mxCell>
                <mxCell id="100" style="edgeStyle=none;html=1;exitX=0.75;exitY=0;exitDx=0;exitDy=0;dashed=1;fontSize=17;startArrow=none;startFill=0;startSize=15;entryX=0.25;entryY=1;entryDx=0;entryDy=0;" edge="1" parent="1" source="14" target="34">
                    <mxGeometry relative="1" as="geometry">
                        <mxPoint x="-100" y="-250" as="targetPoint"/>
                    </mxGeometry>
                </mxCell>
                <mxCell id="47" style="edgeStyle=none;html=1;exitX=1;exitY=0.5;exitDx=0;exitDy=0;dashed=1;fontSize=17;startArrow=none;startFill=0;startSize=15;" edge="1" parent="1" source="5">
                    <mxGeometry relative="1" as="geometry">
                        <mxPoint x="710" y="-185" as="targetPoint"/>
                    </mxGeometry>
                </mxCell>
                <mxCell id="51" value="&amp;lt;model/Repository&amp;gt;&lt;br&gt;&lt;font style=&quot;font-size: 15px;&quot;&gt;OrderToppingRepository&lt;/font&gt;" style="swimlane;whiteSpace=wrap;html=1;startSize=40;" vertex="1" parent="1">
                    <mxGeometry x="710" y="160" width="440" height="150" as="geometry"/>
                </mxCell>
                <mxCell id="52" value="+ insert(orderTopping:OrderTopping):void" style="text;html=1;align=center;verticalAlign=middle;resizable=0;points=[];autosize=1;strokeColor=none;fillColor=none;fontSize=17;" vertex="1" parent="51">
                    <mxGeometry x="55" y="70" width="330" height="30" as="geometry"/>
                </mxCell>
                <mxCell id="96" style="edgeStyle=none;html=1;exitX=0.75;exitY=1;exitDx=0;exitDy=0;dashed=1;fontSize=17;startArrow=none;startFill=0;startSize=15;entryX=0;entryY=0.5;entryDx=0;entryDy=0;" edge="1" parent="1" source="14" target="6">
                    <mxGeometry relative="1" as="geometry">
                        <mxPoint x="200" y="500.00000000000045" as="targetPoint"/>
                    </mxGeometry>
                </mxCell>
            </root>
        </mxGraphModel>
    </diagram>
</mxfile>